<svg xmlns="http://www.w3.org/2000/svg" xml:space="preserve" width="2.72415in" height="2.5518in" version="1.1" style="shape-rendering:geometricPrecision; text-rendering:geometricPrecision; image-rendering:optimizeQuality; fill-rule:evenodd; clip-rule:evenodd" viewBox="0 0 2724.15 2551.8" xmlns:xlink="http://www.w3.org/1999/xlink">
<defs>
<style type="text/css">
   
    .fil0 {fill:black}
   
  </style>
</defs>
<g id="Layer_x0020_1">
<metadata id="CorelCorpID_0Corel-Layer"></metadata>
<path class="fil0" d="M277.68 0l2168.79 0c152.72,0 277.68,124.96 277.68,277.68l0 1996.43c0,152.72 -124.96,277.68 -277.68,277.68l-2168.79 0c-152.72,0 -277.68,-124.96 -277.68,-277.68l0 -1996.43c0,-152.72 124.96,-277.68 277.68,-277.68zm1084.39 506.46c424.95,0 769.44,344.5 769.44,769.44 0,424.94 -344.5,769.44 -769.44,769.44 -424.94,0 -769.44,-344.49 -769.44,-769.44 0,-424.95 344.49,-769.44 769.44,-769.44zm347.62 794.52l-531.41 306.75c-21.67,13.42 -50.43,-1.99 -50.43,-28.11l0.11 -612.71c-1.48,-25.84 26.68,-43.79 49.64,-30.5l532.23 307.28c21.44,14.33 22.71,44.16 -0.13,57.29z" id="id_101" style="fill: rgb(255, 255, 255);"></path>
</g>
</svg>